TITLE ""
FILE "DISC2Track04.mp3" MP3
  TRACK 01 AUDIO
    TITLE "DISC2Track04_01"
    INDEX 01 00:00:00
  TRACK 02 AUDIO
    TITLE "DISC2Track04_02"
    INDEX 01 00:05:60
  TRACK 03 AUDIO
    TITLE "DISC2Track04_03"
    INDEX 01 00:06:07
  TRACK 04 AUDIO
    TITLE "DISC2Track04_04"
    INDEX 01 00:11:00
  TRACK 05 AUDIO
    TITLE "DISC2Track04_05"
    INDEX 01 00:14:32
  TRACK 06 AUDIO
    TITLE "DISC2Track04_06"
    INDEX 01 00:17:60
  TRACK 07 AUDIO
    TITLE "DISC2Track04_07"
    INDEX 01 00:18:08
  TRACK 08 AUDIO
    TITLE "DISC2Track04_08"
    INDEX 01 00:22:02
  TRACK 09 AUDIO
    TITLE "DISC2Track04_09"
    INDEX 01 00:25:51
  TRACK 10 AUDIO
    TITLE "DISC2Track04_10"
    INDEX 01 00:29:20
  TRACK 11 AUDIO
    TITLE "DISC2Track04_11"
    INDEX 01 00:29:43
  TRACK 12 AUDIO
    TITLE "DISC2Track04_12"
    INDEX 01 00:34:19
  TRACK 13 AUDIO
    TITLE "DISC2Track04_13"
    INDEX 01 00:38:30
  TRACK 14 AUDIO
    TITLE "DISC2Track04_14"
    INDEX 01 00:42:34
  TRACK 15 AUDIO
    TITLE "DISC2Track04_15"
    INDEX 01 00:42:64
  TRACK 16 AUDIO
    TITLE "DISC2Track04_16"
    INDEX 01 00:46:42
  TRACK 17 AUDIO
    TITLE "DISC2Track04_17"
    INDEX 01 00:50:12
  TRACK 18 AUDIO
    TITLE "DISC2Track04_18"
    INDEX 01 00:53:50
  TRACK 19 AUDIO
    TITLE "DISC2Track04_19"
    INDEX 01 00:54:02
  TRACK 20 AUDIO
    TITLE "DISC2Track04_20"
    INDEX 01 00:59:05
  TRACK 21 AUDIO
    TITLE "DISC2Track04_21"
    INDEX 01 01:03:28
  TRACK 22 AUDIO
    TITLE "DISC2Track04_22"
    INDEX 01 01:07:42
  TRACK 23 AUDIO
    TITLE "DISC2Track04_23"
    INDEX 01 01:07:67
  TRACK 24 AUDIO
    TITLE "DISC2Track04_24"
    INDEX 01 01:11:73
  TRACK 25 AUDIO
    TITLE "DISC2Track04_25"
    INDEX 01 01:15:51
  TRACK 26 AUDIO
    TITLE "DISC2Track04_26"
    INDEX 01 01:19:24
  TRACK 27 AUDIO
    TITLE "DISC2Track04_27"
    INDEX 01 01:19:45
  TRACK 28 AUDIO
    TITLE "DISC2Track04_28"
    INDEX 01 01:21:46
  TRACK 29 AUDIO
    TITLE "DISC2Track04_29"
    INDEX 01 01:23:57
  TRACK 30 AUDIO
    TITLE "DISC2Track04_30"
    INDEX 01 01:25:61
  TRACK 31 AUDIO
    TITLE "DISC2Track04_31"
    INDEX 01 01:26:10
  TRACK 32 AUDIO
    TITLE "DISC2Track04_32"
    INDEX 01 01:31:01
  TRACK 33 AUDIO
    TITLE "DISC2Track04_33"
    INDEX 01 01:36:06
  TRACK 34 AUDIO
    TITLE "DISC2Track04_34"
    INDEX 01 01:41:00
  TRACK 35 AUDIO
    TITLE "DISC2Track04_35"
    INDEX 01 01:41:25
  TRACK 36 AUDIO
    TITLE "DISC2Track04_36"
    INDEX 01 01:43:52
  TRACK 37 AUDIO
    TITLE "DISC2Track04_37"
    INDEX 01 01:46:26
  TRACK 38 AUDIO
    TITLE "DISC2Track04_38"
    INDEX 01 01:48:74
  TRACK 39 AUDIO
    TITLE "DISC2Track04_39"
    INDEX 01 01:49:23
  TRACK 40 AUDIO
    TITLE "DISC2Track04_40"
    INDEX 01 01:52:72
  TRACK 41 AUDIO
    TITLE "DISC2Track04_41"
    INDEX 01 01:55:68
  TRACK 42 AUDIO
    TITLE "DISC2Track04_42"
    INDEX 01 01:58:55
  TRACK 43 AUDIO
    TITLE "DISC2Track04_43"
    INDEX 01 01:59:04
  TRACK 44 AUDIO
    TITLE "DISC2Track04_44"
    INDEX 01 02:02:72
  TRACK 45 AUDIO
    TITLE "DISC2Track04_45"
    INDEX 01 02:06:17
  TRACK 46 AUDIO
    TITLE "DISC2Track04_46"
    INDEX 01 02:09:27
  TRACK 47 AUDIO
    TITLE "DISC2Track04_47"
    INDEX 01 02:09:53
  TRACK 48 AUDIO
    TITLE "DISC2Track04_48"
    INDEX 01 02:11:09
  TRACK 49 AUDIO
    TITLE "DISC2Track04_49"
    INDEX 01 02:12:71
  TRACK 50 AUDIO
    TITLE "DISC2Track04_50"
    INDEX 01 02:14:46
  TRACK 51 AUDIO
    TITLE "DISC2Track04_51"
    INDEX 01 02:14:72
  TRACK 52 AUDIO
    TITLE "DISC2Track04_52"
    INDEX 01 02:18:28
  TRACK 53 AUDIO
    TITLE "DISC2Track04_53"
    INDEX 01 02:20:66
  TRACK 54 AUDIO
    TITLE "DISC2Track04_54"
    INDEX 01 02:23:28
  TRACK 55 AUDIO
    TITLE "DISC2Track04_55"
    INDEX 01 02:23:49
  TRACK 56 AUDIO
    TITLE "DISC2Track04_56"
    INDEX 01 02:25:13
  TRACK 57 AUDIO
    TITLE "DISC2Track04_57"
    INDEX 01 02:27:00
  TRACK 58 AUDIO
    TITLE "DISC2Track04_58"
    INDEX 01 02:28:54
